<?xml version="1.0" encoding="UTF-8" standalone="no"?>
<!DOCTYPE svg PUBLIC "-//W3C//DTD SVG 1.1//EN" "http://www.w3.org/Graphics/SVG/1.1/DTD/svg11.dtd">
<svg width="100%" height="100%" viewBox="0 0 1505 477" version="1.1" xmlns="http://www.w3.org/2000/svg" xmlns:xlink="http://www.w3.org/1999/xlink" xml:space="preserve" xmlns:serif="http://www.serif.com/" style="fill-rule:evenodd;clip-rule:evenodd;stroke-linejoin:round;stroke-miterlimit:2;">
    <g transform="matrix(4.16667,0,0,4.16667,391.329,26.0208)">
        <path d="M0,87.454L-70.061,87.454L-61.43,72.934L-26.737,72.934L-30.292,66.856L-83.09,66.856L-47.892,6.418L-38.753,21.951L-55.677,51.324L-48.569,51.324L-21.999,6.08L13.537,66.52L-4.909,66.52L-22.17,37.482L-25.554,43.391L0,87.454ZM24.37,72.766L-22.17,-6.245L-35.031,15.704L-47.722,-6.245L-93.919,72.934L-68.705,72.934L-80.89,93.699L10.832,93.699L-1.354,72.766L24.37,72.766Z" style="fill:rgb(218,176,14);fill-rule:nonzero;"/>
    </g>
    <g transform="matrix(4.16667,0,0,4.16667,566.018,240.653)">
        <path d="M0,-21.402L0.526,-14.947L-0.031,-14.947C-0.562,-16.548 -1.254,-17.753 -2.095,-18.566C-3.313,-19.735 -4.876,-20.321 -6.785,-20.321C-9.385,-20.321 -11.366,-19.292 -12.724,-17.228C-13.858,-15.493 -14.426,-13.419 -14.426,-11.015C-14.426,-9.064 -14.049,-7.289 -13.291,-5.677C-12.538,-4.071 -11.547,-2.893 -10.324,-2.141C-9.102,-1.395 -7.842,-1.019 -6.553,-1.019C-5.799,-1.019 -5.067,-1.117 -4.36,-1.307C-3.658,-1.498 -2.977,-1.781 -2.322,-2.157L-2.322,-8.091C-2.322,-9.121 -2.399,-9.795 -2.554,-10.109C-2.714,-10.428 -2.957,-10.67 -3.282,-10.835C-3.611,-11.005 -4.189,-11.087 -5.015,-11.087L-5.015,-11.643L2.91,-11.643L2.91,-11.087L2.533,-11.087C1.749,-11.087 1.212,-10.824 0.918,-10.299C0.717,-9.929 0.619,-9.193 0.619,-8.091L0.619,-1.817C-0.537,-1.189 -1.682,-0.731 -2.807,-0.438C-3.937,-0.144 -5.191,0 -6.568,0C-10.525,0 -13.528,-1.266 -15.582,-3.804C-17.124,-5.703 -17.893,-7.901 -17.893,-10.382C-17.893,-12.183 -17.459,-13.913 -16.593,-15.56C-15.566,-17.521 -14.158,-19.034 -12.368,-20.089C-10.866,-20.964 -9.096,-21.402 -7.048,-21.402C-6.305,-21.402 -5.629,-21.34 -5.021,-21.222C-4.412,-21.098 -3.55,-20.836 -2.43,-20.424C-1.868,-20.213 -1.486,-20.105 -1.295,-20.105C-1.104,-20.105 -0.944,-20.193 -0.805,-20.367C-0.671,-20.542 -0.588,-20.887 -0.558,-21.402L0,-21.402ZM30.507,-0.463L25.013,-0.463L18.042,-10.037C17.542,-10.016 17.134,-10.006 16.82,-10.006C16.691,-10.006 16.552,-10.011 16.407,-10.016C16.257,-10.022 16.108,-10.027 15.948,-10.037L15.948,-4.077C15.948,-2.79 16.087,-1.992 16.371,-1.683C16.752,-1.24 17.325,-1.019 18.089,-1.019L18.889,-1.019L18.889,-0.463L10.097,-0.463L10.097,-1.019L10.866,-1.019C11.732,-1.019 12.352,-1.302 12.723,-1.863C12.935,-2.172 13.038,-2.913 13.038,-4.077L13.038,-17.325C13.038,-18.612 12.898,-19.41 12.615,-19.719C12.223,-20.162 11.64,-20.382 10.866,-20.382L10.097,-20.382L10.097,-20.939L17.568,-20.939C19.75,-20.939 21.355,-20.779 22.386,-20.465C23.424,-20.146 24.301,-19.559 25.018,-18.71C25.74,-17.86 26.101,-16.847 26.101,-15.668C26.101,-14.407 25.689,-13.316 24.868,-12.389C24.042,-11.463 22.773,-10.809 21.045,-10.423L25.291,-4.56C26.261,-3.212 27.092,-2.311 27.789,-1.868C28.48,-1.421 29.388,-1.143 30.507,-1.019L30.507,-0.463ZM15.948,-10.994C16.139,-10.994 16.304,-10.994 16.443,-10.989C16.583,-10.984 16.696,-10.979 16.784,-10.979C18.718,-10.979 20.179,-11.401 21.159,-12.245C22.144,-13.094 22.634,-14.17 22.634,-15.478C22.634,-16.754 22.237,-17.794 21.448,-18.597C20.653,-19.395 19.601,-19.796 18.295,-19.796C17.717,-19.796 16.933,-19.703 15.948,-19.518L15.948,-10.994ZM51.207,-20.382L51.207,-20.939L58.419,-20.939L58.419,-20.382L57.651,-20.382C56.846,-20.382 56.227,-20.048 55.793,-19.374C55.582,-19.06 55.479,-18.339 55.479,-17.202L55.479,-8.904C55.479,-6.851 55.278,-5.26 54.87,-4.128C54.462,-2.996 53.657,-2.023 52.466,-1.215C51.274,-0.406 49.654,0 47.601,0C45.366,0 43.669,-0.386 42.513,-1.163C41.352,-1.935 40.532,-2.98 40.052,-4.288C39.728,-5.183 39.567,-6.861 39.567,-9.327L39.567,-17.325C39.567,-18.581 39.392,-19.404 39.046,-19.796C38.7,-20.187 38.138,-20.382 37.364,-20.382L36.595,-20.382L36.595,-20.939L45.449,-20.939L45.449,-20.382L44.665,-20.382C43.819,-20.382 43.215,-20.115 42.854,-19.585C42.601,-19.225 42.478,-18.468 42.478,-17.325L42.478,-8.405C42.478,-7.612 42.549,-6.701 42.693,-5.672C42.843,-4.648 43.106,-3.85 43.488,-3.274C43.875,-2.702 44.428,-2.229 45.145,-1.853C45.867,-1.483 46.749,-1.297 47.796,-1.297C49.138,-1.297 50.34,-1.59 51.397,-2.172C52.455,-2.754 53.178,-3.505 53.564,-4.411C53.952,-5.322 54.147,-6.866 54.147,-9.038L54.147,-17.325C54.147,-18.602 54.008,-19.4 53.725,-19.719C53.333,-20.162 52.749,-20.382 51.976,-20.382L51.207,-20.382ZM71.303,-10.063L71.303,-4.077C71.303,-2.79 71.442,-1.992 71.726,-1.683C72.108,-1.24 72.686,-1.019 73.459,-1.019L74.244,-1.019L74.244,-0.463L65.452,-0.463L65.452,-1.019L66.226,-1.019C67.093,-1.019 67.717,-1.302 68.088,-1.863C68.29,-2.172 68.393,-2.913 68.393,-4.077L68.393,-17.325C68.393,-18.612 68.259,-19.41 67.986,-19.719C67.588,-20.162 67.005,-20.382 66.226,-20.382L65.452,-20.382L65.452,-20.939L72.974,-20.939C74.811,-20.939 76.255,-20.748 77.319,-20.372C78.376,-19.997 79.269,-19.359 79.997,-18.463C80.724,-17.567 81.085,-16.507 81.085,-15.282C81.085,-13.609 80.533,-12.25 79.429,-11.205C78.325,-10.161 76.767,-9.635 74.749,-9.635C74.254,-9.635 73.722,-9.672 73.15,-9.744C72.572,-9.811 71.958,-9.919 71.303,-10.063M71.303,-10.927C71.834,-10.824 72.309,-10.747 72.722,-10.701C73.129,-10.65 73.485,-10.624 73.774,-10.624C74.822,-10.624 75.719,-11.03 76.478,-11.839C77.236,-12.647 77.618,-13.692 77.618,-14.973C77.618,-15.859 77.437,-16.682 77.076,-17.439C76.715,-18.195 76.199,-18.761 75.539,-19.137C74.874,-19.513 74.12,-19.703 73.279,-19.703C72.763,-19.703 72.108,-19.606 71.303,-19.415L71.303,-10.927ZM115.354,-21.402L115.354,-14.33L114.796,-14.33C114.616,-15.689 114.291,-16.77 113.822,-17.572C113.352,-18.376 112.681,-19.013 111.809,-19.487C110.943,-19.961 110.044,-20.197 109.116,-20.197C108.064,-20.197 107.197,-19.879 106.51,-19.24C105.824,-18.602 105.479,-17.871 105.479,-17.058C105.479,-16.435 105.695,-15.863 106.128,-15.349C106.758,-14.597 108.244,-13.589 110.596,-12.333C112.516,-11.303 113.827,-10.516 114.528,-9.97C115.23,-9.42 115.772,-8.776 116.148,-8.029C116.525,-7.283 116.715,-6.506 116.715,-5.688C116.715,-4.138 116.112,-2.805 114.91,-1.683C113.703,-0.561 112.15,0 110.256,0C109.658,0 109.101,-0.047 108.575,-0.139C108.259,-0.191 107.615,-0.376 106.629,-0.695C105.649,-1.014 105.025,-1.173 104.761,-1.173C104.508,-1.173 104.307,-1.096 104.163,-0.947C104.019,-0.793 103.911,-0.479 103.837,0L103.281,0L103.281,-7.01L103.837,-7.01C104.101,-5.544 104.452,-4.442 104.896,-3.716C105.339,-2.985 106.02,-2.378 106.933,-1.9C107.847,-1.416 108.848,-1.173 109.936,-1.173C111.195,-1.173 112.196,-1.508 112.924,-2.172C113.657,-2.841 114.023,-3.629 114.023,-4.535C114.023,-5.039 113.883,-5.548 113.61,-6.064C113.332,-6.578 112.903,-7.057 112.32,-7.505C111.928,-7.808 110.849,-8.446 109.09,-9.424C107.331,-10.397 106.077,-11.18 105.334,-11.761C104.591,-12.343 104.024,-12.991 103.642,-13.692C103.255,-14.397 103.064,-15.174 103.064,-16.018C103.064,-17.485 103.631,-18.751 104.761,-19.812C105.891,-20.872 107.336,-21.402 109.08,-21.402C110.174,-21.402 111.33,-21.134 112.552,-20.604C113.12,-20.352 113.517,-20.229 113.749,-20.229C114.012,-20.229 114.229,-20.305 114.394,-20.46C114.559,-20.62 114.693,-20.928 114.796,-21.402L115.354,-21.402ZM134.119,-1.019L134.119,-0.463L125.327,-0.463L125.327,-1.019L126.054,-1.019C126.906,-1.019 127.52,-1.266 127.907,-1.756C128.149,-2.08 128.268,-2.851 128.268,-4.077L128.268,-17.325C128.268,-18.36 128.201,-19.045 128.072,-19.374C127.969,-19.626 127.762,-19.842 127.448,-20.022C127.003,-20.264 126.54,-20.382 126.054,-20.382L125.327,-20.382L125.327,-20.939L134.119,-20.939L134.119,-20.382L133.38,-20.382C132.545,-20.382 131.936,-20.136 131.554,-19.647C131.301,-19.322 131.177,-18.55 131.177,-17.325L131.177,-4.077C131.177,-3.042 131.245,-2.358 131.374,-2.028C131.472,-1.776 131.683,-1.56 132.008,-1.38C132.442,-1.138 132.896,-1.019 133.38,-1.019L134.119,-1.019ZM153.714,-0.463L145.789,-17.691L145.789,-4.015C145.789,-2.754 145.928,-1.966 146.202,-1.652C146.579,-1.23 147.177,-1.019 147.998,-1.019L148.73,-1.019L148.73,-0.463L141.517,-0.463L141.517,-1.019L142.254,-1.019C143.132,-1.019 143.751,-1.281 144.123,-1.807C144.344,-2.131 144.458,-2.867 144.458,-4.015L144.458,-17.387C144.458,-18.293 144.355,-18.952 144.154,-19.353C144.009,-19.647 143.746,-19.888 143.364,-20.089C142.977,-20.285 142.363,-20.382 141.517,-20.382L141.517,-20.939L147.399,-20.939L154.797,-4.931L162.128,-20.939L167.954,-20.939L167.954,-20.382L167.237,-20.382C166.344,-20.382 165.719,-20.12 165.348,-19.595C165.126,-19.271 165.013,-18.535 165.013,-17.387L165.013,-4.015C165.013,-2.754 165.158,-1.966 165.441,-1.652C165.818,-1.23 166.416,-1.019 167.237,-1.019L167.954,-1.019L167.954,-0.463L159.163,-0.463L159.163,-1.019L159.9,-1.019C160.788,-1.019 161.407,-1.281 161.768,-1.807C161.99,-2.131 162.103,-2.867 162.103,-4.015L162.103,-17.691L154.209,-0.463L153.714,-0.463ZM186.079,-21.402C188.736,-21.402 191.042,-20.393 192.987,-18.376C194.938,-16.358 195.913,-13.841 195.913,-10.819C195.913,-7.71 194.932,-5.131 192.966,-3.078C191.006,-1.024 188.627,0 185.836,0C183.02,0 180.651,-1.004 178.732,-3.006C176.813,-5.008 175.853,-7.597 175.853,-10.778C175.853,-14.026 176.962,-16.677 179.175,-18.731C181.1,-20.511 183.401,-21.402 186.079,-21.402M185.79,-20.321C183.963,-20.321 182.494,-19.642 181.389,-18.283C180.011,-16.59 179.32,-14.113 179.32,-10.85C179.32,-7.509 180.032,-4.936 181.461,-3.134C182.56,-1.766 184.005,-1.081 185.805,-1.081C187.73,-1.081 189.314,-1.833 190.568,-3.33C191.821,-4.833 192.445,-7.196 192.445,-10.428C192.445,-13.933 191.754,-16.548 190.376,-18.267C189.273,-19.636 187.746,-20.321 185.79,-20.321M202.904,-20.939L208.418,-20.939L220.993,-5.564L220.993,-17.387C220.993,-18.648 220.848,-19.436 220.564,-19.75C220.188,-20.172 219.589,-20.382 218.774,-20.382L218.051,-20.382L218.051,-20.939L225.264,-20.939L225.264,-20.382L224.532,-20.382C223.65,-20.382 223.031,-20.12 222.659,-19.595C222.437,-19.271 222.324,-18.535 222.324,-17.387L222.324,-0.134L221.777,-0.134L208.269,-16.625L208.269,-4.015C208.269,-2.754 208.409,-1.966 208.682,-1.652C209.069,-1.23 209.667,-1.019 210.477,-1.019L211.21,-1.019L211.21,-0.463L203.998,-0.463L203.998,-1.019L204.719,-1.019C205.607,-1.019 206.231,-1.281 206.603,-1.807C206.825,-2.131 206.938,-2.867 206.938,-4.015L206.938,-18.252C206.345,-18.946 205.891,-19.404 205.586,-19.626C205.277,-19.847 204.828,-20.053 204.235,-20.249C203.941,-20.337 203.497,-20.382 202.904,-20.382L202.904,-20.939Z" style="fill:rgb(15,100,91);fill-rule:nonzero;"/>
    </g>
    <g transform="matrix(4.16667,0,0,4.16667,584.601,296.09)">
        <path d="M0,4.118L-4.798,4.118L-5.626,6.053C-5.832,6.532 -5.937,6.892 -5.937,7.128C-5.937,7.314 -5.847,7.482 -5.667,7.624C-5.489,7.764 -5.1,7.858 -4.505,7.901L-4.505,8.237L-8.409,8.237L-8.409,7.901C-7.893,7.811 -7.56,7.693 -7.407,7.547C-7.096,7.255 -6.753,6.662 -6.376,5.77L-2.021,-4.398L-1.713,-4.398L2.593,5.879C2.938,6.705 3.253,7.24 3.537,7.488C3.82,7.733 4.212,7.87 4.72,7.901L4.72,8.237L-0.162,8.237L-0.162,7.901C0.33,7.876 0.663,7.795 0.837,7.656C1.012,7.516 1.096,7.345 1.096,7.143C1.096,6.876 0.974,6.454 0.731,5.876L0,4.118ZM-0.28,3.447L-2.366,-1.538L-4.508,3.447L-0.28,3.447ZM27.329,-4.398L27.329,-0.131L26.993,-0.131C26.884,-0.951 26.687,-1.603 26.404,-2.088C26.121,-2.572 25.716,-2.957 25.19,-3.243C24.666,-3.528 24.125,-3.672 23.565,-3.672C22.93,-3.672 22.407,-3.479 21.993,-3.094C21.578,-2.709 21.37,-2.268 21.37,-1.777C21.37,-1.401 21.5,-1.056 21.762,-0.746C22.142,-0.292 23.039,0.317 24.458,1.074C25.616,1.696 26.407,2.171 26.831,2.5C27.254,2.832 27.581,3.221 27.808,3.671C28.036,4.121 28.151,4.59 28.151,5.084C28.151,6.019 27.786,6.824 27.061,7.5C26.333,8.178 25.395,8.516 24.253,8.516C23.892,8.516 23.556,8.488 23.238,8.432C23.048,8.401 22.659,8.289 22.064,8.097C21.472,7.904 21.096,7.808 20.937,7.808C20.785,7.808 20.664,7.854 20.576,7.945C20.489,8.038 20.423,8.227 20.38,8.516L20.043,8.516L20.043,4.286L20.38,4.286C20.539,5.171 20.75,5.836 21.018,6.274C21.286,6.715 21.697,7.081 22.248,7.37C22.799,7.662 23.403,7.808 24.06,7.808C24.819,7.808 25.423,7.606 25.862,7.205C26.305,6.802 26.526,6.326 26.526,5.78C26.526,5.475 26.441,5.168 26.276,4.857C26.108,4.547 25.85,4.258 25.498,3.988C25.261,3.804 24.611,3.419 23.549,2.829C22.487,2.242 21.731,1.77 21.283,1.419C20.834,1.068 20.492,0.677 20.261,0.254C20.028,-0.172 19.913,-0.64 19.913,-1.15C19.913,-2.035 20.255,-2.799 20.937,-3.439C21.619,-4.079 22.491,-4.398 23.543,-4.398C24.203,-4.398 24.9,-4.237 25.638,-3.917C25.98,-3.765 26.22,-3.69 26.36,-3.69C26.52,-3.69 26.65,-3.737 26.75,-3.83C26.849,-3.926 26.93,-4.112 26.993,-4.398L27.329,-4.398ZM51.541,-4.398L51.541,-0.131L51.205,-0.131C51.096,-0.951 50.9,-1.603 50.616,-2.088C50.333,-2.572 49.929,-2.957 49.402,-3.243C48.879,-3.528 48.337,-3.672 47.777,-3.672C47.142,-3.672 46.619,-3.479 46.205,-3.094C45.791,-2.709 45.583,-2.268 45.583,-1.777C45.583,-1.401 45.713,-1.056 45.975,-0.746C46.354,-0.292 47.251,0.317 48.671,1.074C49.829,1.696 50.62,2.171 51.043,2.5C51.467,2.832 51.793,3.221 52.02,3.671C52.248,4.121 52.363,4.59 52.363,5.084C52.363,6.019 51.999,6.824 51.273,7.5C50.545,8.178 49.608,8.516 48.465,8.516C48.104,8.516 47.768,8.488 47.451,8.432C47.261,8.401 46.872,8.289 46.277,8.097C45.685,7.904 45.309,7.808 45.149,7.808C44.997,7.808 44.876,7.854 44.789,7.945C44.702,8.038 44.636,8.227 44.593,8.516L44.256,8.516L44.256,4.286L44.593,4.286C44.751,5.171 44.963,5.836 45.23,6.274C45.498,6.715 45.909,7.081 46.46,7.37C47.011,7.662 47.615,7.808 48.272,7.808C49.032,7.808 49.636,7.606 50.075,7.205C50.517,6.802 50.738,6.326 50.738,5.78C50.738,5.475 50.654,5.168 50.489,4.857C50.321,4.547 50.062,4.258 49.711,3.988C49.474,3.804 48.823,3.419 47.762,2.829C46.7,2.242 45.943,1.77 45.495,1.419C45.047,1.068 44.705,0.677 44.474,0.254C44.24,-0.172 44.125,-0.64 44.125,-1.15C44.125,-2.035 44.468,-2.799 45.149,-3.439C45.831,-4.079 46.703,-4.398 47.755,-4.398C48.416,-4.398 49.113,-4.237 49.851,-3.917C50.193,-3.765 50.433,-3.69 50.573,-3.69C50.732,-3.69 50.862,-3.737 50.962,-3.83C51.062,-3.926 51.143,-4.112 51.205,-4.398L51.541,-4.398ZM71.084,-3.448L71.084,1.434L73.811,1.434C74.518,1.434 74.988,1.329 75.224,1.118C75.542,0.838 75.716,0.347 75.754,-0.355L76.09,-0.355L76.09,3.95L75.754,3.95C75.67,3.348 75.583,2.96 75.499,2.789C75.39,2.577 75.208,2.41 74.96,2.288C74.711,2.167 74.328,2.105 73.811,2.105L71.084,2.105L71.084,6.181C71.084,6.727 71.109,7.059 71.156,7.178C71.206,7.295 71.29,7.392 71.411,7.46C71.532,7.532 71.766,7.566 72.105,7.566L74.201,7.566C74.898,7.566 75.405,7.516 75.723,7.42C76.038,7.324 76.342,7.131 76.631,6.845C77.008,6.469 77.395,5.901 77.79,5.143L78.164,5.143L77.096,8.237L67.553,8.237L67.553,7.901L67.993,7.901C68.285,7.901 68.562,7.83 68.824,7.69C69.02,7.594 69.154,7.448 69.222,7.252C69.293,7.056 69.328,6.659 69.328,6.056L69.328,-1.976C69.328,-2.758 69.25,-3.24 69.091,-3.42C68.871,-3.662 68.506,-3.783 67.993,-3.783L67.553,-3.783L67.553,-4.119L77.099,-4.119L77.23,-1.398L76.874,-1.398C76.747,-2.053 76.607,-2.504 76.452,-2.749C76.295,-2.995 76.065,-3.181 75.763,-3.311C75.521,-3.402 75.09,-3.448 74.477,-3.448L71.084,-3.448ZM100.988,-4.398L100.988,-0.131L100.651,-0.131C100.542,-0.951 100.346,-1.603 100.063,-2.088C99.78,-2.572 99.374,-2.957 98.848,-3.243C98.326,-3.528 97.784,-3.672 97.223,-3.672C96.588,-3.672 96.066,-3.479 95.651,-3.094C95.237,-2.709 95.029,-2.268 95.029,-1.777C95.029,-1.401 95.16,-1.056 95.42,-0.746C95.8,-0.292 96.698,0.317 98.117,1.074C99.275,1.696 100.066,2.171 100.489,2.5C100.913,2.832 101.24,3.221 101.467,3.671C101.694,4.121 101.809,4.59 101.809,5.084C101.809,6.019 101.445,6.824 100.719,7.5C99.991,8.178 99.054,8.516 97.912,8.516C97.55,8.516 97.214,8.488 96.897,8.432C96.707,8.401 96.318,8.289 95.723,8.097C95.131,7.904 94.754,7.808 94.596,7.808C94.443,7.808 94.322,7.854 94.235,7.945C94.147,8.038 94.083,8.227 94.039,8.516L93.703,8.516L93.703,4.286L94.039,4.286C94.197,5.171 94.409,5.836 94.676,6.274C94.945,6.715 95.355,7.081 95.907,7.37C96.458,7.662 97.062,7.808 97.718,7.808C98.478,7.808 99.083,7.606 99.521,7.205C99.963,6.802 100.184,6.326 100.184,5.78C100.184,5.475 100.1,5.168 99.935,4.857C99.767,4.547 99.508,4.258 99.157,3.988C98.92,3.804 98.269,3.419 97.208,2.829C96.146,2.242 95.389,1.77 94.941,1.419C94.493,1.068 94.151,0.677 93.92,0.254C93.687,-0.172 93.572,-0.64 93.572,-1.15C93.572,-2.035 93.914,-2.799 94.596,-3.439C95.278,-4.079 96.149,-4.398 97.202,-4.398C97.862,-4.398 98.559,-4.237 99.297,-3.917C99.639,-3.765 99.879,-3.69 100.019,-3.69C100.178,-3.69 100.309,-3.737 100.409,-3.83C100.508,-3.926 100.589,-4.112 100.651,-4.398L100.988,-4.398ZM125.201,-4.398L125.201,-0.131L124.864,-0.131C124.755,-0.951 124.558,-1.603 124.275,-2.088C123.992,-2.572 123.587,-2.957 123.061,-3.243C122.538,-3.528 121.997,-3.672 121.436,-3.672C120.801,-3.672 120.278,-3.479 119.864,-3.094C119.45,-2.709 119.242,-2.268 119.242,-1.777C119.242,-1.401 119.372,-1.056 119.633,-0.746C120.013,-0.292 120.91,0.317 122.33,1.074C123.488,1.696 124.279,2.171 124.702,2.5C125.125,2.832 125.453,3.221 125.679,3.671C125.907,4.121 126.022,4.59 126.022,5.084C126.022,6.019 125.658,6.824 124.932,7.5C124.204,8.178 123.266,8.516 122.124,8.516C121.763,8.516 121.426,8.488 121.109,8.432C120.919,8.401 120.53,8.289 119.935,8.097C119.343,7.904 118.967,7.808 118.808,7.808C118.656,7.808 118.535,7.854 118.447,7.945C118.36,8.038 118.294,8.227 118.251,8.516L117.915,8.516L117.915,4.286L118.251,4.286C118.41,5.171 118.622,5.836 118.889,6.274C119.157,6.715 119.568,7.081 120.12,7.37C120.67,7.662 121.274,7.808 121.931,7.808C122.691,7.808 123.294,7.606 123.734,7.205C124.176,6.802 124.397,6.326 124.397,5.78C124.397,5.475 124.313,5.168 124.148,4.857C123.979,4.547 123.721,4.258 123.37,3.988C123.132,3.804 122.482,3.419 121.42,2.829C120.359,2.242 119.602,1.77 119.154,1.419C118.706,1.068 118.363,0.677 118.132,0.254C117.899,-0.172 117.784,-0.64 117.784,-1.15C117.784,-2.035 118.126,-2.799 118.808,-3.439C119.49,-4.079 120.362,-4.398 121.415,-4.398C122.074,-4.398 122.772,-4.237 123.509,-3.917C123.852,-3.765 124.091,-3.69 124.232,-3.69C124.391,-3.69 124.521,-3.737 124.622,-3.83C124.72,-3.926 124.801,-4.112 124.864,-4.398L125.201,-4.398ZM147.664,-4.398C149.266,-4.398 150.658,-3.79 151.832,-2.572C153.008,-1.355 153.597,0.164 153.597,1.988C153.597,3.864 153.005,5.419 151.819,6.659C150.636,7.898 149.201,8.516 147.516,8.516C145.817,8.516 144.387,7.91 143.229,6.702C142.071,5.494 141.493,3.932 141.493,2.012C141.493,0.053 142.162,-1.547 143.497,-2.786C144.659,-3.861 146.047,-4.398 147.664,-4.398M147.489,-3.746C146.386,-3.746 145.499,-3.336 144.833,-2.516C144.001,-1.494 143.584,0 143.584,1.969C143.584,3.985 144.014,5.537 144.876,6.624C145.54,7.451 146.412,7.864 147.498,7.864C148.66,7.864 149.615,7.41 150.372,6.507C151.128,5.6 151.505,4.174 151.505,2.223C151.505,0.108 151.087,-1.469 150.256,-2.507C149.59,-3.333 148.668,-3.746 147.489,-3.746M180.787,8.237L177.47,8.237L173.264,2.46C172.962,2.472 172.716,2.478 172.527,2.478C172.449,2.478 172.365,2.475 172.277,2.472C172.187,2.469 172.097,2.466 172,2.46L172,6.056C172,6.832 172.084,7.314 172.255,7.5C172.486,7.767 172.832,7.901 173.292,7.901L173.775,7.901L173.775,8.237L168.469,8.237L168.469,7.901L168.933,7.901C169.457,7.901 169.831,7.73 170.054,7.392C170.182,7.205 170.245,6.758 170.245,6.056L170.245,-1.939C170.245,-2.715 170.161,-3.196 169.989,-3.382C169.752,-3.65 169.401,-3.783 168.933,-3.783L168.469,-3.783L168.469,-4.119L172.978,-4.119C174.294,-4.119 175.263,-4.023 175.885,-3.833C176.511,-3.641 177.041,-3.286 177.473,-2.774C177.91,-2.261 178.127,-1.65 178.127,-0.938C178.127,-0.177 177.878,0.481 177.383,1.04C176.885,1.599 176.12,1.993 175.076,2.226L177.638,5.764C178.224,6.578 178.725,7.121 179.145,7.389C179.563,7.659 180.111,7.826 180.787,7.901L180.787,8.237ZM172,1.882C172.116,1.882 172.215,1.882 172.299,1.885C172.383,1.888 172.452,1.891 172.504,1.891C173.672,1.891 174.553,1.637 175.145,1.127C175.74,0.615 176.035,-0.034 176.035,-0.823C176.035,-1.594 175.795,-2.221 175.319,-2.706C174.839,-3.187 174.205,-3.429 173.416,-3.429C173.068,-3.429 172.595,-3.373 172,-3.262L172,1.882ZM203.009,-4.398L203.009,-0.131L202.672,-0.131C202.564,-0.951 202.368,-1.603 202.084,-2.088C201.801,-2.572 201.396,-2.957 200.871,-3.243C200.347,-3.528 199.805,-3.672 199.246,-3.672C198.61,-3.672 198.087,-3.479 197.672,-3.094C197.259,-2.709 197.05,-2.268 197.05,-1.777C197.05,-1.401 197.181,-1.056 197.442,-0.746C197.822,-0.292 198.719,0.317 200.138,1.074C201.296,1.696 202.087,2.171 202.511,2.5C202.934,2.832 203.261,3.221 203.489,3.671C203.716,4.121 203.831,4.59 203.831,5.084C203.831,6.019 203.466,6.824 202.742,7.5C202.013,8.178 201.076,8.516 199.933,8.516C199.572,8.516 199.236,8.488 198.918,8.432C198.728,8.401 198.339,8.289 197.745,8.097C197.153,7.904 196.777,7.808 196.618,7.808C196.465,7.808 196.343,7.854 196.256,7.945C196.168,8.038 196.104,8.227 196.06,8.516L195.724,8.516L195.724,4.286L196.06,4.286C196.219,5.171 196.43,5.836 196.699,6.274C196.966,6.715 197.377,7.081 197.928,7.37C198.479,7.662 199.083,7.808 199.74,7.808C200.499,7.808 201.104,7.606 201.542,7.205C201.985,6.802 202.206,6.326 202.206,5.78C202.206,5.475 202.122,5.168 201.957,4.857C201.789,4.547 201.53,4.258 201.178,3.988C200.942,3.804 200.291,3.419 199.23,2.829C198.167,2.242 197.412,1.77 196.963,1.419C196.514,1.068 196.172,0.677 195.942,0.254C195.708,-0.172 195.593,-0.64 195.593,-1.15C195.593,-2.035 195.935,-2.799 196.618,-3.439C197.299,-4.079 198.17,-4.398 199.223,-4.398C199.883,-4.398 200.581,-4.237 201.319,-3.917C201.662,-3.765 201.901,-3.69 202.041,-3.69C202.2,-3.69 202.331,-3.737 202.43,-3.83C202.53,-3.926 202.611,-4.112 202.672,-4.398L203.009,-4.398Z" style="fill:rgb(15,100,91);fill-rule:nonzero;"/>
    </g>
    <g transform="matrix(4.16667,0,0,4.16667,-397.267,-579.201)">
        <rect x="215.061" y="200.003" width="238.511" height="0.674" style="fill:rgb(15,100,91);"/>
    </g>
    <g transform="matrix(4.16667,0,0,4.16667,-397.267,-228.609)">
        <path d="M223.743,160.708L222.249,160.708L222.249,155.83L223.743,155.83L223.743,160.708ZM220.421,160.708L218.927,160.708L218.927,155.83L220.421,155.83L220.421,160.708Z" style="fill:rgb(15,100,91);fill-rule:nonzero;"/>
    </g>
    <g transform="matrix(4.16667,0,0,4.16667,556.968,446.796)">
        <path d="M0,0.588L0,5.396L2.848,5.396C3.803,5.396 4.51,5.198 4.97,4.802C5.43,4.407 5.66,3.802 5.66,2.987C5.66,2.167 5.43,1.562 4.97,1.172C4.51,0.783 3.803,0.588 2.848,0.588L0,0.588ZM0,-4.808L0,-0.853L2.628,-0.853C3.495,-0.853 4.141,-1.016 4.565,-1.341C4.99,-1.666 5.203,-2.163 5.203,-2.831C5.203,-3.493 4.99,-3.988 4.565,-4.316C4.141,-4.644 3.495,-4.808 2.628,-4.808L0,-4.808ZM-1.775,-6.267L2.76,-6.267C4.113,-6.267 5.156,-5.986 5.889,-5.424C6.621,-4.861 6.987,-4.061 6.987,-3.024C6.987,-2.222 6.8,-1.583 6.425,-1.108C6.05,-0.634 5.499,-0.338 4.772,-0.221C5.646,-0.033 6.323,0.358 6.808,0.953C7.29,1.547 7.532,2.29 7.532,3.181C7.532,4.353 7.134,5.258 6.337,5.897C5.54,6.535 4.406,6.855 2.936,6.855L-1.775,6.855L-1.775,-6.267Z" style="fill:rgb(15,100,91);fill-rule:nonzero;"/>
    </g>
    <g transform="matrix(4.16667,0,0,4.16667,629.075,458.588)">
        <path d="M0,-1.776C-0.012,-2.661 -0.259,-3.367 -0.743,-3.894C-1.226,-4.422 -1.866,-4.685 -2.663,-4.685C-3.565,-4.685 -4.288,-4.43 -4.829,-3.921C-5.372,-3.411 -5.684,-2.693 -5.766,-1.767L0,-1.776ZM1.617,-1.301L1.617,-0.51L-5.818,-0.51C-5.748,0.603 -5.413,1.451 -4.812,2.034C-4.212,2.617 -3.375,2.909 -2.303,2.909C-1.682,2.909 -1.08,2.832 -0.497,2.68C0.086,2.528 0.665,2.299 1.239,1.995L1.239,3.524C0.659,3.77 0.064,3.957 -0.545,4.086C-1.154,4.215 -1.772,4.28 -2.399,4.28C-3.97,4.28 -5.214,3.823 -6.13,2.909C-7.048,1.995 -7.506,0.758 -7.506,-0.8C-7.506,-2.412 -7.071,-3.691 -6.2,-4.637C-5.331,-5.583 -4.157,-6.056 -2.681,-6.056C-1.356,-6.056 -0.31,-5.63 0.462,-4.777C1.231,-3.925 1.617,-2.766 1.617,-1.301" style="fill:rgb(15,100,91);fill-rule:nonzero;"/>
    </g>
    <g transform="matrix(4.16667,0,0,4.16667,676.39,473.858)">
        <path d="M0,-9.106L0,-7.594C-0.457,-7.846 -0.916,-8.035 -1.376,-8.161C-1.836,-8.287 -2.3,-8.35 -2.769,-8.35C-3.817,-8.35 -4.632,-8.018 -5.212,-7.353C-5.792,-6.688 -6.082,-5.754 -6.082,-4.553C-6.082,-3.352 -5.792,-2.419 -5.212,-1.754C-4.632,-1.089 -3.817,-0.756 -2.769,-0.756C-2.3,-0.756 -1.836,-0.819 -1.376,-0.945C-0.916,-1.071 -0.457,-1.26 0,-1.512L0,-0.018C-0.451,0.193 -0.919,0.351 -1.401,0.457C-1.886,0.562 -2.399,0.615 -2.944,0.615C-4.427,0.615 -5.604,0.149 -6.478,-0.783C-7.351,-1.714 -7.787,-2.971 -7.787,-4.553C-7.787,-6.159 -7.347,-7.421 -6.464,-8.341C-5.583,-9.261 -4.374,-9.721 -2.839,-9.721C-2.341,-9.721 -1.854,-9.67 -1.38,-9.567C-0.905,-9.465 -0.445,-9.311 0,-9.106" style="fill:rgb(15,100,91);fill-rule:nonzero;"/>
    </g>
    <g transform="matrix(4.16667,0,0,4.16667,706.749,455.031)">
        <path d="M0,-0.07C-1.307,-0.07 -2.212,0.079 -2.716,0.378C-3.22,0.677 -3.472,1.187 -3.472,1.908C-3.472,2.482 -3.283,2.937 -2.904,3.274C-2.527,3.611 -2.013,3.78 -1.362,3.78C-0.466,3.78 0.253,3.462 0.795,2.826C1.337,2.19 1.608,1.345 1.608,0.29L1.608,-0.07L0,-0.07ZM3.226,-0.738L3.226,4.878L1.608,4.878L1.608,3.384C1.239,3.982 0.779,4.423 0.229,4.707C-0.322,4.991 -0.996,5.133 -1.793,5.133C-2.801,5.133 -3.603,4.85 -4.197,4.285C-4.792,3.72 -5.089,2.962 -5.089,2.013C-5.089,0.906 -4.719,0.071 -3.977,-0.492C-3.236,-1.054 -2.13,-1.336 -0.659,-1.336L1.608,-1.336L1.608,-1.494C1.608,-2.238 1.363,-2.814 0.875,-3.221C0.385,-3.628 -0.302,-3.832 -1.187,-3.832C-1.749,-3.832 -2.297,-3.764 -2.83,-3.63C-3.363,-3.495 -3.876,-3.293 -4.368,-3.023L-4.368,-4.517C-3.776,-4.746 -3.202,-4.917 -2.646,-5.031C-2.089,-5.146 -1.547,-5.203 -1.02,-5.203C0.404,-5.203 1.468,-4.834 2.171,-4.095C2.874,-3.357 3.226,-2.238 3.226,-0.738" style="fill:rgb(15,100,91);fill-rule:nonzero;"/>
    </g>
    <g transform="matrix(4.16667,0,0,4.16667,733.372,451.592)">
        <path d="M0,1.819L0,-4.14L1.617,-4.14L1.617,1.757C1.617,2.689 1.799,3.388 2.162,3.854C2.525,4.319 3.07,4.552 3.797,4.552C4.67,4.552 5.359,4.274 5.867,3.717C6.373,3.161 6.627,2.402 6.627,1.441L6.627,-4.14L8.244,-4.14L8.244,5.704L6.627,5.704L6.627,4.192C6.234,4.79 5.779,5.234 5.26,5.524C4.742,5.814 4.14,5.959 3.454,5.959C2.323,5.959 1.465,5.607 0.879,4.904C0.293,4.201 0,3.173 0,1.819" style="fill:rgb(15,100,91);fill-rule:nonzero;"/>
    </g>
    <g transform="matrix(4.16667,0,0,4.16667,807.75,474.225)">
        <path d="M0,-9.282L0,-7.753C-0.457,-7.987 -0.932,-8.163 -1.424,-8.28C-1.916,-8.397 -2.426,-8.456 -2.953,-8.456C-3.756,-8.456 -4.358,-8.333 -4.759,-8.087C-5.161,-7.841 -5.361,-7.471 -5.361,-6.979C-5.361,-6.604 -5.218,-6.31 -4.931,-6.096C-4.644,-5.882 -4.066,-5.678 -3.199,-5.485L-2.646,-5.362C-1.497,-5.116 -0.681,-4.769 -0.198,-4.321C0.286,-3.872 0.527,-3.247 0.527,-2.444C0.527,-1.53 0.165,-0.806 -0.558,-0.273C-1.282,0.26 -2.276,0.527 -3.542,0.527C-4.069,0.527 -4.618,0.475 -5.19,0.373C-5.761,0.27 -6.363,0.116 -6.996,-0.089L-6.996,-1.759C-6.398,-1.448 -5.81,-1.215 -5.229,-1.06C-4.649,-0.905 -4.075,-0.827 -3.507,-0.827C-2.745,-0.827 -2.159,-0.957 -1.749,-1.218C-1.339,-1.479 -1.134,-1.846 -1.134,-2.321C-1.134,-2.761 -1.282,-3.097 -1.577,-3.332C-1.874,-3.566 -2.522,-3.792 -3.524,-4.009L-4.087,-4.14C-5.089,-4.351 -5.812,-4.675 -6.258,-5.112C-6.703,-5.548 -6.926,-6.147 -6.926,-6.909C-6.926,-7.835 -6.598,-8.55 -5.941,-9.053C-5.285,-9.557 -4.354,-9.809 -3.146,-9.809C-2.549,-9.809 -1.986,-9.765 -1.459,-9.678C-0.932,-9.59 -0.445,-9.458 0,-9.282" style="fill:rgb(15,100,91);fill-rule:nonzero;"/>
    </g>
    <g transform="matrix(4.16667,0,0,4.16667,849.02,458.588)">
        <path d="M0,-1.776C-0.012,-2.661 -0.259,-3.367 -0.743,-3.894C-1.225,-4.422 -1.866,-4.685 -2.663,-4.685C-3.565,-4.685 -4.288,-4.43 -4.829,-3.921C-5.372,-3.411 -5.683,-2.693 -5.765,-1.767L0,-1.776ZM1.617,-1.301L1.617,-0.51L-5.818,-0.51C-5.748,0.603 -5.413,1.451 -4.811,2.034C-4.211,2.617 -3.375,2.909 -2.302,2.909C-1.681,2.909 -1.08,2.832 -0.497,2.68C0.086,2.528 0.665,2.299 1.239,1.995L1.239,3.524C0.659,3.77 0.064,3.957 -0.544,4.086C-1.154,4.215 -1.772,4.28 -2.399,4.28C-3.969,4.28 -5.213,3.823 -6.129,2.909C-7.047,1.995 -7.505,0.758 -7.505,-0.8C-7.505,-2.412 -7.071,-3.691 -6.2,-4.637C-5.331,-5.583 -4.157,-6.056 -2.68,-6.056C-1.356,-6.056 -0.31,-5.63 0.462,-4.777C1.231,-3.925 1.617,-2.766 1.617,-1.301" style="fill:rgb(15,100,91);fill-rule:nonzero;"/>
    </g>
    <g transform="matrix(4.16667,0,0,4.16667,886.227,475.358)">
        <path d="M0,-9.844L3.059,-9.844L4.711,-3.059L6.372,-9.844L9,-9.844L10.652,-3.129L12.313,-9.844L15.372,-9.844L12.779,0L9.343,0L7.682,-6.768L6.029,0L2.593,0L0,-9.844Z" style="fill:rgb(15,100,91);fill-rule:nonzero;"/>
    </g>
    <g transform="matrix(4.16667,0,0,4.16667,986.642,459.39)">
        <path d="M0,-2.162C0,-2.76 -0.175,-3.242 -0.523,-3.608C-0.872,-3.974 -1.327,-4.157 -1.89,-4.157C-2.499,-4.157 -2.994,-3.986 -3.375,-3.643C-3.756,-3.3 -3.993,-2.807 -4.087,-2.162L0,-2.162ZM3.234,-1.116L3.234,-0.22L-4.122,-0.22C-4.046,0.519 -3.779,1.072 -3.322,1.442C-2.865,1.811 -2.227,1.995 -1.406,1.995C-0.744,1.995 -0.066,1.897 0.629,1.701C1.322,1.505 2.036,1.207 2.769,0.809L2.769,3.234C2.024,3.516 1.28,3.728 0.536,3.872C-0.208,4.015 -0.952,4.087 -1.696,4.087C-3.478,4.087 -4.862,3.634 -5.85,2.729C-6.837,1.824 -7.33,0.554 -7.33,-1.081C-7.33,-2.686 -6.846,-3.949 -5.875,-4.869C-4.906,-5.789 -3.571,-6.249 -1.872,-6.249C-0.325,-6.249 0.912,-5.783 1.842,-4.851C2.77,-3.92 3.234,-2.675 3.234,-1.116" style="fill:rgb(15,100,91);fill-rule:nonzero;"/>
    </g>
    <g transform="matrix(4.16667,0,0,4.16667,1036.15,475.358)">
        <path d="M0,-13.676L3.146,-13.676L3.146,-6.232L6.768,-9.844L10.424,-9.844L5.616,-5.326L10.802,0L6.987,0L3.146,-4.105L3.146,0L0,0L0,-13.676Z" style="fill:rgb(15,100,91);fill-rule:nonzero;"/>
    </g>
    <g transform="matrix(4.16667,0,0,4.16667,1127.27,458.328)">
        <path d="M0,-1.907L0,4.087L-3.164,4.087L-3.164,-0.501C-3.164,-1.35 -3.184,-1.936 -3.221,-2.259C-3.26,-2.581 -3.325,-2.818 -3.419,-2.97C-3.542,-3.176 -3.709,-3.335 -3.92,-3.449C-4.131,-3.564 -4.371,-3.621 -4.641,-3.621C-5.297,-3.621 -5.812,-3.367 -6.187,-2.861C-6.562,-2.354 -6.75,-1.652 -6.75,-0.756L-6.75,4.087L-9.896,4.087L-9.896,-5.757L-6.75,-5.757L-6.75,-4.315C-6.275,-4.889 -5.771,-5.313 -5.238,-5.585C-4.705,-5.858 -4.116,-5.994 -3.472,-5.994C-2.335,-5.994 -1.473,-5.645 -0.883,-4.948C-0.295,-4.251 0,-3.237 0,-1.907" style="fill:rgb(15,100,91);fill-rule:nonzero;"/>
    </g>
    <g transform="matrix(4.16667,0,0,4.16667,1158.94,467.045)">
        <path d="M0,-5.836C-0.697,-5.836 -1.229,-5.586 -1.595,-5.085C-1.962,-4.584 -2.145,-3.861 -2.145,-2.918C-2.145,-1.975 -1.962,-1.253 -1.595,-0.752C-1.229,-0.251 -0.697,0 0,0C0.686,0 1.21,-0.251 1.573,-0.752C1.937,-1.253 2.118,-1.975 2.118,-2.918C2.118,-3.861 1.937,-4.584 1.573,-5.085C1.21,-5.586 0.686,-5.836 0,-5.836M0,-8.086C1.693,-8.086 3.016,-7.629 3.968,-6.715C4.92,-5.801 5.396,-4.535 5.396,-2.918C5.396,-1.301 4.92,-0.035 3.968,0.879C3.016,1.793 1.693,2.25 0,2.25C-1.699,2.25 -3.028,1.793 -3.985,0.879C-4.944,-0.035 -5.423,-1.301 -5.423,-2.918C-5.423,-4.535 -4.944,-5.801 -3.985,-6.715C-3.028,-7.629 -1.699,-8.086 0,-8.086" style="fill:rgb(15,100,91);fill-rule:nonzero;"/>
    </g>
    <g transform="matrix(4.16667,0,0,4.16667,1187.29,475.358)">
        <path d="M0,-9.844L3.059,-9.844L4.711,-3.059L6.372,-9.844L9,-9.844L10.652,-3.129L12.313,-9.844L15.372,-9.844L12.779,0L9.343,0L7.682,-6.768L6.029,0L2.593,0L0,-9.844Z" style="fill:rgb(15,100,91);fill-rule:nonzero;"/>
    </g>
    <g transform="matrix(4.16667,0,0,4.16667,1325.31,443.348)">
        <path d="M0,1.688L0,7.682L-3.164,7.682L-3.164,3.112C-3.164,2.25 -3.184,1.659 -3.221,1.336C-3.26,1.014 -3.325,0.777 -3.419,0.625C-3.542,0.419 -3.709,0.26 -3.92,0.146C-4.131,0.031 -4.371,-0.026 -4.641,-0.026C-5.297,-0.026 -5.812,0.228 -6.187,0.734C-6.562,1.241 -6.75,1.943 -6.75,2.839L-6.75,7.682L-9.896,7.682L-9.896,-5.994L-6.75,-5.994L-6.75,-0.72C-6.275,-1.294 -5.771,-1.718 -5.238,-1.99C-4.705,-2.263 -4.116,-2.399 -3.472,-2.399C-2.335,-2.399 -1.473,-2.05 -0.883,-1.353C-0.295,-0.656 0,0.358 0,1.688" style="fill:rgb(218,176,14);fill-rule:nonzero;"/>
    </g>
    <g transform="matrix(4.16667,0,0,4.16667,1356.99,467.045)">
        <path d="M0,-5.836C-0.697,-5.836 -1.229,-5.586 -1.595,-5.085C-1.962,-4.584 -2.145,-3.861 -2.145,-2.918C-2.145,-1.975 -1.962,-1.253 -1.595,-0.752C-1.229,-0.251 -0.697,0 0,0C0.686,0 1.21,-0.251 1.573,-0.752C1.937,-1.253 2.118,-1.975 2.118,-2.918C2.118,-3.861 1.937,-4.584 1.573,-5.085C1.21,-5.586 0.686,-5.836 0,-5.836M0,-8.086C1.693,-8.086 3.016,-7.629 3.968,-6.715C4.92,-5.801 5.396,-4.535 5.396,-2.918C5.396,-1.301 4.92,-0.035 3.968,0.879C3.016,1.793 1.693,2.25 0,2.25C-1.699,2.25 -3.028,1.793 -3.985,0.879C-4.944,-0.035 -5.423,-1.301 -5.423,-2.918C-5.423,-4.535 -4.944,-5.801 -3.985,-6.715C-3.028,-7.629 -1.699,-8.086 0,-8.086" style="fill:rgb(218,176,14);fill-rule:nonzero;"/>
    </g>
    <g transform="matrix(4.16667,0,0,4.16667,1385.34,475.358)">
        <path d="M0,-9.844L3.059,-9.844L4.711,-3.059L6.372,-9.844L9,-9.844L10.652,-3.129L12.313,-9.844L15.372,-9.844L12.779,0L9.343,0L7.682,-6.768L6.029,0L2.593,0L0,-9.844Z" style="fill:rgb(218,176,14);fill-rule:nonzero;"/>
    </g>
    <g transform="matrix(4.16667,0,0,4.16667,-397.267,-228.609)">
        <path d="M451.485,160.708L449.402,160.708L449.402,155.83L451.485,155.83L451.485,160.708ZM447.618,160.708L445.535,160.708L445.535,155.83L447.618,155.83L447.618,160.708Z" style="fill:rgb(218,176,14);fill-rule:nonzero;"/>
    </g>
</svg>
