<?xml version="1.0" standalone="no"?>
<!DOCTYPE svg PUBLIC "-//W3C//DTD SVG 20010904//EN"
 "http://www.w3.org/TR/2001/REC-SVG-20010904/DTD/svg10.dtd">
<svg version="1.0" xmlns="http://www.w3.org/2000/svg"
 width="375.000000pt" height="153.000000pt" viewBox="0 0 375.000000 153.000000"
 preserveAspectRatio="xMidYMid meet">
<metadata>
Created by potrace 1.16, written by Peter Selinger 2001-2019
</metadata>
<g transform="translate(0.000000,153.000000) scale(0.100000,-0.100000)"
fill="#000000" stroke="none">
<path d="M1045 1315 c-115 -30 -190 -63 -291 -131 -138 -91 -232 -212 -214
-273 13 -48 34 -71 78 -88 82 -31 261 4 381 74 56 33 148 118 167 155 19 37
18 83 -3 103 -14 14 -32 17 -104 13 -78 -4 -97 -9 -171 -45 -79 -39 -217 -143
-226 -170 -8 -27 22 -11 78 40 74 66 156 116 239 144 81 28 122 29 152 4 21
-17 22 -21 11 -58 -43 -143 -426 -314 -529 -237 -16 12 -34 32 -42 46 -13 22
-12 30 11 79 52 115 235 248 431 315 188 64 422 53 509 -25 l31 -27 -49 -29
c-89 -51 -248 -163 -330 -232 -332 -277 -409 -334 -518 -383 -121 -55 -242
-58 -297 -7 l-23 21 33 7 c62 13 69 62 9 67 -39 3 -78 -26 -78 -59 0 -28 39
-68 78 -79 176 -48 473 66 698 270 56 51 65 56 99 52 32 -4 36 -7 31 -26 -3
-11 -6 -24 -6 -28 0 -3 -47 -41 -106 -83 -114 -83 -166 -144 -147 -173 8 -13
25 -17 73 -16 54 1 75 8 151 47 78 40 87 43 73 22 -9 -13 -14 -34 -12 -47 4
-33 47 -35 113 -4 l55 25 -3 -22 c-5 -49 70 -29 192 52 38 25 49 37 37 39 -10
2 -41 -12 -69 -31 -157 -103 -153 -75 7 50 l118 93 -96 0 c-109 0 -173 -19
-257 -76 -28 -19 -59 -34 -68 -34 -9 0 -60 -22 -114 -50 -99 -51 -165 -66
-153 -34 3 9 6 17 6 19 0 2 33 27 73 56 127 93 167 139 167 193 0 20 6 27 28
32 83 18 163 47 205 75 102 68 160 176 139 260 l-10 40 76 39 c50 25 69 39 55
40 -13 0 -51 -14 -86 -31 l-64 -32 -40 27 c-63 42 -132 56 -278 55 -104 0
-148 -5 -220 -24z m525 -132 c-1 -47 -35 -106 -96 -164 -99 -94 -207 -150
-249 -130 -11 5 -26 11 -34 13 -26 7 336 308 370 308 5 0 9 -12 9 -27z"/>
<path d="M2926 1088 c-3 -46 -8 -136 -12 -200 l-6 -118 -104 0 -105 0 -20 35
c-20 34 -23 35 -81 35 l-60 0 4 -67 5 -68 -49 -61 c-26 -34 -48 -65 -48 -68 0
-3 26 -6 59 -6 53 0 63 4 109 40 l50 40 96 0 c53 0 96 -4 96 -9 0 -5 -56 -96
-125 -203 l-124 -193 62 -3 62 -3 200 206 200 206 178 -1 c176 0 178 0 202 25
27 26 33 69 13 82 -7 4 -91 10 -187 13 l-174 5 -56 195 -57 195 -61 3 -61 3
-6 -83z"/>
<path d="M1793 745 c-54 -23 -149 -88 -135 -92 6 -3 43 13 81 35 133 77 149
65 25 -19 -70 -47 -118 -101 -111 -124 6 -17 63 -17 101 -1 20 8 36 14 36 12
0 -15 -106 -79 -159 -97 -133 -43 -289 -140 -279 -172 3 -6 22 -13 43 -15 52
-5 170 55 294 149 61 45 115 77 155 90 56 19 96 39 183 91 l32 19 -11 -29 c-6
-16 -8 -36 -5 -46 15 -38 138 -6 249 65 34 22 47 35 36 37 -9 2 -36 -9 -60
-24 -56 -36 -144 -74 -168 -74 -11 0 -20 6 -20 14 0 17 68 76 88 76 27 0 126
40 158 65 48 36 45 55 -8 55 -45 0 -163 -53 -204 -91 -11 -10 -27 -19 -36 -19
-8 0 -51 -22 -96 -49 -70 -42 -142 -76 -142 -67 0 1 63 52 140 112 l139 109
-39 3 c-34 3 -51 -5 -137 -65 -128 -89 -192 -129 -223 -138 -22 -7 -24 -6 -11
9 8 9 49 42 93 72 77 55 98 78 98 108 0 20 -62 21 -107 1z"/>
</g>
</svg>
